# xmcd CD database file
#
# Track frame offsets:
#	150
#	12520
#	31255
#	52640
#	64977
#	76437
#	92465
#	103865
#	127092
#	143672
#
# Disc length: 2038 seconds
#
# Revision: 0
# Processed by: cddbd v1.5.1PL2 Copyright (c) Steve Scherf et al.
# Submitted via: CDex 1.51
#
DISCID=7d07f40a
DTITLE=Various Artist - County Goes To The Movies
DYEAR=1998
DGENRE=Country
TTITLE0=Patsy Cline/Crazy (Doc Hollywood)
TTITLE1=Mark Chesnutt/Texas is Bigger Than It Used To Be (8 seconds)
TTITLE2=Kelly Willis/Little Honey (Thelma and Louise)
TTITLE3=Freddy Fender/Wasted Days and Wasted Nights (Rush)
TTITLE4=Tanya Tucker/It's a Cowboy Lovin' Night (Tremors)
TTITLE5=Marty Brown/Honky Tonk Special (Leaving Normal)
TTITLE6=Patty Loveless/Timber I'm Falling In Love (A Few Good Men)
TTITLE7=The Mavericks/I Should Have Been True (Little Giants)
TTITLE8=Nanci Griffith/Never Mind (The Firm)
TTITLE9=Patsy Cline/Back In Baby's Arms (Natural Born Killers)
EXTD=YEAR: 1998
EXTT0=
EXTT1=
EXTT2=
EXTT3=
EXTT4=
EXTT5=
EXTT6=
EXTT7=
EXTT8=
EXTT9=
PLAYORDER=
